<?xml version="1.0" standalone="no"?>
<!DOCTYPE svg PUBLIC "-//W3C//DTD SVG 20010904//EN"
 "http://www.w3.org/TR/2001/REC-SVG-20010904/DTD/svg10.dtd">
<svg version="1.0" xmlns="http://www.w3.org/2000/svg"
 width="512.000000pt" height="512.000000pt" viewBox="0 0 512.000000 512.000000"
 preserveAspectRatio="xMidYMid meet">

<g transform="translate(0.000000,512.000000) scale(0.100000,-0.100000)"
fill="#000000" stroke="none">
<path d="M4275 5085 c-75 -17 -123 -37 -194 -82 -68 -42 -2364 -2332 -2385
-2378 -8 -16 -83 -279 -167 -583 -151 -548 -153 -554 -138 -594 19 -57 58 -83
117 -81 41 1 1052 275 1123 303 14 6 558 545 1210 1198 1126 1127 1187 1190
1218 1256 81 171 79 346 -6 516 -31 63 -61 98 -178 216 -118 118 -152 146
-215 177 -126 63 -258 80 -385 52z m232 -266 c50 -18 76 -40 184 -148 110
-109 130 -134 149 -186 17 -47 21 -74 17 -125 -6 -96 -34 -147 -134 -250 l-88
-91 -298 299 -298 298 94 91 c70 68 107 95 148 111 71 28 152 28 226 1z m-347
-684 l295 -295 -933 -932 -932 -933 -295 295 c-162 162 -295 299 -295 305 0
13 1842 1855 1855 1855 6 0 143 -133 305 -295z m-1822 -2284 c-42 -14 -643
-179 -645 -177 -1 1 20 81 46 177 27 95 68 243 91 327 l43 154 239 -239 c131
-131 232 -240 226 -242z"/>
<path d="M485 4584 c-211 -51 -394 -229 -462 -449 -17 -57 -18 -140 -18 -1830
0 -1690 1 -1773 18 -1830 70 -226 258 -405 476 -450 61 -13 322 -15 1958 -13
l1888 3 65 22 c93 32 183 89 254 159 72 73 117 145 154 246 l27 73 3 645 c4
710 6 686 -58 723 -39 24 -101 22 -134 -4 -58 -45 -56 -26 -56 -668 0 -399 -4
-607 -11 -643 -16 -75 -50 -138 -105 -192 -56 -57 -120 -90 -199 -106 -44 -8
-553 -10 -1895 -8 l-1835 3 -58 23 c-74 30 -163 113 -199 183 -15 30 -32 83
-37 119 -15 89 -15 3339 -1 3430 25 156 133 276 285 316 39 11 181 14 648 14
660 0 644 -1 681 62 37 62 16 142 -45 174 -41 21 -1255 19 -1344 -2z"/>
</g>
</svg>
